#!OML:ASF E:\emotionWalksFemale\Project 1\Capture day 1\Session 1\Female1.ASF
:FULLY-SPECIFIED
:DEGREES
1933
root 9.3964 15.6347 39.1815 7.73306 -113.011 356.372
lowerback 7.38965 1.02024 0.810242
upperback -4.60952 1.39958 -0.23765
thorax -9.00877 0.60384 -0.914903
lowerneck 10.3786 -18.2769 -19.8967
upperneck -6.44308 -26.3367 20.0468
head 1.7695 -13.625 8.23227
rclavicle -4.04589e-014 -4.77083e-015
rhumerus -32.7721 -1.84089 -75.1195
rradius 35.5557
rwrist 15.4253
rhand -4.9252 -51.8638
rfingers 7.12502
rthumb 20.8653 639.238
lclavicle -4.04589e-014 -4.77083e-015
lhumerus -46.5605 34.0544 3.93038
lradius 42.8618
lwrist 6.09126
lhand -8.86517 -29.9329
lfingers 7.12502
lthumb 17.0762 -0.66339
rfemur -9.80154 -8.31844 22.9667
rtibia 37.1674
rfoot -22.215 -33.9593
rtoes 30.9527
lfemur -9.82059 7.46128 -26.0929
ltibia 32.7034
lfoot -19.0517 26.2522
ltoes -23.3388
1934
root 9.41283 15.6291 39.194 7.78135 -114.079 356.304
lowerback 7.3582 1.02932 0.774086
upperback -4.58883 1.4025 -0.293876
thorax -8.96701 0.60587 -0.953634
lowerneck 10.1945 -18.1616 -20.0332
upperneck -6.11446 -26.1968 19.9207
head 1.8657 -13.5397 8.1941
rclavicle 3.44394e-014 2.18663e-015
rhumerus -33.1086 -2.20234 -74.8172
rradius 35.1932
rwrist 15.5801
rhand -6.75827 -52.7757
rfingers 7.12502
rthumb 19.1033 638.142
lclavicle 3.44394e-014 2.18663e-015
lhumerus -45.5198 34.499 4.57249
lradius 43.0242
lwrist 5.91381
lhand -8.42854 -30.0996
lfingers 7.12502
lthumb 17.4965 -0.866958
rfemur -9.92936 -8.39944 23.1791
rtibia 37.1334
rfoot -22.3698 -33.3341
rtoes 29.9718
lfemur -10.0214 7.58957 -26.1327
ltibia 33.1765
lfoot -18.6863 26.385
ltoes -24.5936
1935
root 9.42728 15.6276 39.2052 7.90668 -114.985 356.107
lowerback 7.40985 0.955049 0.594789
upperback -4.6152 1.28115 -0.300967
thorax -9.03236 0.556504 -0.843762
lowerneck 9.9721 -17.983 -20.1765
upperneck -5.58636 -25.9829 19.664
head 1.99332 -13.4111 8.11857
rclavicle -4.09372e-015 -1.59028e-015
rhumerus -33.5464 -2.70644 -74.4208
rradius 34.8182
rwrist 16.0074
rhand -6.95016 -52.9701
rfingers 7.12502
rthumb 18.9188 637.93
lclavicle -4.09372e-015 -1.59028e-015
lhumerus -44.4755 34.2241 5.45484
lradius 43.1316
lwrist 6.27035
lhand -8.17776 -30.2007
lfingers 7.12502
lthumb 17.7378 -0.989698
rfemur -9.97357 -8.61941 23.3231
rtibia 36.9963
rfoot -22.4491 -33.007
rtoes 27.7118
lfemur -10.156 7.58918 -26.1886
ltibia 33.6286
lfoot -19.1096 26.0968
ltoes -22.2061
1936
root 9.43941 15.6255 39.2109 7.93838 -115.928 356.027
lowerback 7.36628 0.900863 0.462371
upperback -4.6292 1.18575 -0.372401
thorax -9.02469 0.515168 -0.830066
lowerneck 9.86053 -17.8235 -19.9738
upperneck -5.37712 -25.7388 19.3905
head 1.95969 -13.2792 8.03879
rclavicle 5.5287e-015 7.95139e-016
rhumerus -34.0269 -3.39222 -74.0596
rradius 34.4875
rwrist 16.8269
rhand -6.81697 -53.2282
rfingers 7.12502
rthumb 19.0468 637.684
lclavicle 5.5287e-015 7.95139e-016
lhumerus -43.424 34.2887 6.07706
lradius 43.2604
lwrist 6.19305
lhand -7.61713 -30.2738
lfingers 7.12502
lthumb 18.2772 -1.11244
rfemur -9.9847 -8.70149 23.492
rtibia 36.7269
rfoot -21.9934 -33.0641
rtoes 24.3061
lfemur -10.2978 7.71764 -26.1929
ltibia 34.0849
lfoot -11.6019 27.4461
ltoes -41.3051
1937
root 9.45155 15.6198 39.2174 8.06015 -116.898 355.969
lowerback 7.1763 0.889909 0.446498
upperback -4.63228 1.15634 -0.495232
thorax -8.91425 0.497437 -0.943153
lowerneck 9.7702 -17.7777 -19.5293
upperneck -5.39929 -25.595 19.022
head 1.83051 -13.1979 7.90738
rclavicle -4.31984e-014 -5.36719e-015
rhumerus -34.4923 -3.88765 -73.8029
rradius 34.2789
rwrist 17.2859
rhand -6.89931 -53.601
rfingers 7.12502
rthumb 18.9677 637.304
lclavicle -4.31984e-014 -5.36719e-015
lhumerus -42.1934 34.6136 6.75891
lradius 43.291
lwrist 5.84481
lhand -6.93123 -30.2784
lfingers 7.12502
lthumb 18.937 -1.18026
rfemur -10.1064 -8.42613 23.6559
rtibia 36.3456
rfoot -24.3441 -32.6465
rtoes 28.8529
lfemur -10.5625 7.80714 -26.2446
ltibia 34.5108
lfoot -17.156 26.2998
ltoes -27.7722
1938
root 9.4653 15.616 39.2244 8.18049 -117.837 355.955
lowerback 7.00056 0.879855 0.541042
upperback -4.64812 1.14009 -0.619249
thorax -8.82393 0.479051 -1.12181
lowerneck 9.68068 -17.6912 -19.2887
upperneck -5.37278 -25.4304 18.7921
head 1.75874 -13.1084 7.83392
rclavicle -3.50979e-014 3.57812e-015
rhumerus -35.0017 -4.47192 -73.4901
rradius 34.1048
rwrist 17.6563
rhand -6.81242 -53.4835
rfingers 7.12502
rthumb 19.0512 637.43
lclavicle -3.50979e-014 3.57812e-015
lhumerus -40.8197 34.5363 7.67493
lradius 43.226
lwrist 5.81506
lhand -6.44298 -30.2578
lfingers 7.12502
lthumb 19.4065 -1.20617
rfemur -10.276 -7.92575 23.8337
rtibia 35.9058
rfoot -27.3209 -32.5387
rtoes 32.7744
lfemur -10.8656 7.87607 -26.3001
ltibia 34.8932
lfoot -15.3767 26.6444
ltoes -32.2469
